<svg xmlns="http://www.w3.org/2000/svg" viewBox="0 0 320 250" role="img" aria-label="Logo Cerebro">
  <defs>
    <linearGradient id="cerebro-dark-trunk" x1="110" y1="220" x2="220" y2="40" gradientUnits="userSpaceOnUse">
      <stop offset="0" stop-color="#143f67" />
      <stop offset="0.5" stop-color="#2f7ec2" />
      <stop offset="1" stop-color="#9fcff4" />
    </linearGradient>
    <linearGradient id="cerebro-dark-branch" x1="52" y1="190" x2="278" y2="70" gradientUnits="userSpaceOnUse">
      <stop offset="0" stop-color="#1a6eb2" />
      <stop offset="0.55" stop-color="#77b9ee" />
      <stop offset="1" stop-color="#dff3ff" />
    </linearGradient>
    <filter id="cerebro-dark-glow" x="-10%" y="-10%" width="120%" height="120%">
      <feDropShadow dx="0" dy="0" stdDeviation="2.5" flood-color="#4aa8e8" flood-opacity="0.35" />
    </filter>
    <style>
      .outline { stroke: #ffffff; }
      .core { stroke: url(#cerebro-dark-trunk); }
      .branch { stroke: url(#cerebro-dark-branch); }
    </style>
  </defs>
  <g fill="none" stroke-linecap="round" stroke-linejoin="round" filter="url(#cerebro-dark-glow)">
    <path class="outline" stroke-width="7" d="M84 63c-20 0-38 12-47 29-21-4-38 10-41 28-19 10-28 27-24 45 3 14 13 25 27 31 8 16 24 27 42 27h56c22 0 42-10 54-25 12 15 32 25 54 25h56c18 0 34-11 42-27 14-6 24-17 27-31 4-18-5-35-24-45-3-18-20-32-41-28-9-17-27-29-47-29-8 0-15 2-22 5-7-9-17-14-29-14-7 0-13 1-19 4-6-3-12-4-19-4-12 0-22 5-29 14-7-3-14-5-22-5z"/>
    <path class="outline" stroke-width="7" d="M146 34v98l-25 26-15 26v34m54-184v98l25 26 15 26v34"/>
    <path class="outline" stroke-width="7" d="M146 126 111 98 88 73M146 118 100 117 72 103M146 141 100 145 68 139M146 154 110 170 81 182M160 126l35-28 23-25M160 118l46-1 28-14M160 141l46 4 32-6M160 154l36 16 29 12"/>
    <path class="outline" stroke-width="6" d="M90 62c12 8 18 16 20 27M66 87c13 4 21 10 26 19M53 128c14 2 25 7 33 15M68 172c12-2 23 1 34 8M230 62c-12 8-18 16-20 27M254 87c-13 4-21 10-26 19M267 128c-14 2-25 7-33 15M252 172c-12-2-23 1-34 8"/>
    <path class="core" stroke-width="4.5" d="M146 34v98l-25 26-15 26v34m54-184v98l25 26 15 26v34"/>
    <path class="branch" stroke-width="4" d="M146 126 111 98 88 73M146 118 100 117 72 103M146 141 100 145 68 139M146 154 110 170 81 182M160 126l35-28 23-25M160 118l46-1 28-14M160 141l46 4 32-6M160 154l36 16 29 12"/>
    <path class="branch" stroke-width="3.5" d="M90 62c12 8 18 16 20 27M66 87c13 4 21 10 26 19M53 128c14 2 25 7 33 15M68 172c12-2 23 1 34 8M230 62c-12 8-18 16-20 27M254 87c-13 4-21 10-26 19M267 128c-14 2-25 7-33 15M252 172c-12-2-23 1-34 8"/>
    <g class="outline" stroke-width="5">
      <circle cx="81" cy="75" r="8" />
      <circle cx="58" cy="104" r="6.5" />
      <circle cx="247" cy="75" r="8" />
      <circle cx="270" cy="104" r="6.5" />
      <circle cx="215" cy="92" r="7" />
      <circle cx="105" cy="92" r="7" />
      <circle cx="245" cy="146" r="7" />
      <circle cx="75" cy="146" r="7" />
      <circle cx="267" cy="176" r="7" />
    </g>
    <g class="branch" stroke-width="3">
      <circle cx="81" cy="75" r="8" />
      <circle cx="58" cy="104" r="6.5" />
      <circle cx="247" cy="75" r="8" />
      <circle cx="270" cy="104" r="6.5" />
      <circle cx="215" cy="92" r="7" />
      <circle cx="105" cy="92" r="7" />
      <circle cx="245" cy="146" r="7" />
      <circle cx="75" cy="146" r="7" />
      <circle cx="267" cy="176" r="7" />
    </g>
  </g>
</svg>
